# xmcd
#
# Track frame offsets: 
#        150
#        16269
#        33219
#        49502
#        62459
#        79941
#        95498
#        113411
#        132945
#        146599
#        165073
#        177317
#
# Disc length: 3009 seconds
#
# Revision: 0
# Processed by: cddbd v1.5.2PL0 Copyright (c) Steve Scherf et al.
# Submitted via: ExactAudioCopy v0.95b3
#
DISCID=870bbf0c
DTITLE=Poison  - Open Up and Say... Ahh! - 1988  VBR
DYEAR=1900
DGENRE=
TTITLE0=Love On The Rocks
TTITLE1=Nothin' But A Good Time
TTITLE2=Back To The Rocking Horse
TTITLE3=Good Love
TTITLE4=Tearin' Down The Walls
TTITLE5=Look But You Can't Touch
TTITLE6=Fallen Angel
TTITLE7=Every Rose Has Its Thorn
TTITLE8=Your Mama Don't Dance
TTITLE9=Bad To Be Good
TTITLE10=Livin' For The Minute (Bonus Track)
TTITLE11=World Premiere Interview (Bonus Track)
EXTD=
EXTT0=
EXTT1=
EXTT2=
EXTT3=
EXTT4=
EXTT5=
EXTT6=
EXTT7=
EXTT8=
EXTT9=
EXTT10=
EXTT11=
PLAYORDER=
